<svg width="149" height="50" fill="none" xmlns="http://www.w3.org/2000/svg"><path d="M39.997 22.205a18.393 18.393 0 003.322-10.576c0-3.802-1.152-7.474-3.367-10.62-.487-.656-1.24-1.049-2.081-.962a14.605 14.605 0 00-3.323.525c-3.897 1.005-7.44 3.278-9.921 6.38a21.836 21.836 0 00-1.816 2.666 20.303 20.303 0 00-1.816-2.666C18.47 3.85 14.97 1.577 11.073.572A17.474 17.474 0 007.707.004C6.865-.04 6.112.31 5.625.965a18.25 18.25 0 00-3.366 10.62c0 3.846 1.196 7.517 3.366 10.62C2.26 24.434 0 28.235 0 32.563c0 6.817 5.625 12.411 12.58 12.411 1.727 0 3.41-.35 4.916-.961.044.13.088.218.133.35.487 1.354.974 2.49 1.55 3.32.709 1.05 1.905 2.317 3.676 2.317 1.772 0 2.968-1.224 3.632-2.273.532-.83 1.063-1.922 1.506-3.277.045-.175.133-.35.177-.525 1.506.612 3.145 1.005 4.917 1.005 6.91 0 12.58-5.55 12.58-12.411a12.617 12.617 0 00-5.67-10.314zM28.215 9.837c1.904-2.36 4.562-4.065 7.485-4.851.399-.088.753-.175 1.152-.262a13.715 13.715 0 011.816 6.861c0 3.234-1.108 6.293-3.1 8.784a12.494 12.494 0 00-2.57-.262 12.577 12.577 0 00-7.884 2.753v-4.632c.089-3.103 1.152-5.988 3.1-8.391zM6.91 11.585c0-2.404.62-4.764 1.816-6.861.398.087.797.13 1.151.262 2.968.786 5.625 2.49 7.486 4.85 1.949 2.405 3.012 5.333 3.1 8.436v4.676a12.575 12.575 0 00-7.928-2.797c-.842 0-1.683.087-2.48.262a13.906 13.906 0 01-3.145-8.828zM4.65 32.562c0-4.326 3.544-7.822 7.93-7.822 4.251 0 7.75 3.321 7.928 7.517v.612c-.133 4.195-3.632 7.56-7.929 7.56-4.385-.044-7.928-3.54-7.928-7.867zM22.81 44.8c-.265-.48-.62-1.31-1.062-2.578l-.266-.918c.487-.48.93-1.005 1.329-1.573.398.524.797 1.049 1.284 1.486-.088.35-.177.699-.31 1.092-.398 1.224-.708 2.01-.974 2.491zm10.233-4.457c-4.164 0-7.575-3.19-7.885-7.211v-1.268c.355-4.02 3.765-7.167 7.885-7.167 4.385 0 7.928 3.496 7.928 7.823 0 4.283-3.543 7.823-7.928 7.823z" fill="#5C02FF"/><path d="M32.998 27.45c-2.834 0-5.093 2.272-5.093 5.026 0 2.797 2.303 5.025 5.093 5.025 2.835 0 5.094-2.272 5.094-5.025 0-2.754-2.303-5.026-5.094-5.026zm-20.418 0c-2.836 0-5.095 2.272-5.095 5.026 0 2.797 2.304 5.025 5.094 5.025 2.79 0 5.094-2.272 5.094-5.025 0-2.754-2.26-5.026-5.094-5.026zm50.626 6.293c-4.916 0-8.504-3.409-8.504-8.129s3.543-8.041 8.504-8.041c4.03 0 7.131 2.36 8.017 5.944a.652.652 0 01-.62.786h-2.569c-.93 0-1.86-.35-2.436-1.005-.576-.656-1.418-1.005-2.392-1.005-1.86 0-3.189 1.398-3.189 3.365 0 1.967 1.329 3.409 3.19 3.409.973 0 1.815-.393 2.39-1.093.621-.743 1.551-1.136 2.526-1.136h2.524c.399 0 .709.393.62.787-.841 3.67-3.986 6.118-8.06 6.118zM90.18 18.666V32.65c0 .35-.265.612-.62.612h-3.1c-.266 0-.487-.13-.576-.35a.59.59 0 00-.886-.262c-1.151.743-2.525 1.137-4.03 1.137-4.696 0-8.062-3.41-8.062-8.13 0-4.719 3.366-8.04 8.061-8.04 1.55 0 2.968.437 4.12 1.223.31.219.708.088.886-.262l.044-.131c.089-.219.31-.35.576-.35h2.967c.355-.043.62.219.62.569zm-5.005 6.992c0-1.967-1.461-3.453-3.454-3.453-1.994 0-3.455 1.486-3.455 3.453 0 1.967 1.461 3.452 3.454 3.452 1.994 0 3.455-1.485 3.455-3.452zM92.44 12.59h4.03c.355 0 .62.263.62.613v19.404c0 .35-.266.612-.62.612h-4.03a.602.602 0 01-.62-.612V13.203c0-.35.265-.612.62-.612zm6.954 0h4.03c.355 0 .62.263.62.613v19.404c0 .35-.265.612-.62.612h-4.03a.602.602 0 01-.62-.612V13.203c-.045-.35.265-.612.62-.612zm6.909 7.037h4.031c.354 0 .62.262.62.612v12.324c0 .35-.266.612-.62.612h-4.031a.602.602 0 01-.62-.612v-12.28c-.044-.35.266-.656.62-.656zm.045-7.036h3.942c.354 0 .62.262.62.612v3.89a.601.601 0 01-.62.611h-3.942a.602.602 0 01-.621-.612v-3.89c-.044-.35.266-.611.621-.611zm22.412 5.462c.354 0 .62.263.62.612v12.893c0 4.763-3.189 7.735-8.239 7.735-4.03 0-6.954-1.835-7.928-4.938-.133-.394.177-.83.62-.83h3.898c.221 0 .443.13.575.305.488.83 1.684 1.224 2.835 1.224 1.772 0 3.189-1.136 3.189-2.928v-.437c-1.151.743-2.524 1.136-4.03 1.136-4.43 0-7.707-3.234-7.707-7.648 0-4.326 3.277-7.648 7.707-7.648a7.66 7.66 0 014.296 1.311.63.63 0 00.93-.218l.133-.263c.133-.218.31-.35.576-.35h2.525v.044zm-7.619 10.49c1.905 0 3.278-1.4 3.278-3.322 0-1.923-1.373-3.322-3.278-3.322-1.904 0-3.277 1.399-3.277 3.322s1.373 3.321 3.277 3.321zm9.878-2.885c0-4.72 3.632-8.085 8.637-8.085 5.005 0 8.637 3.365 8.637 8.085 0 4.676-3.632 8.085-8.637 8.085-5.05 0-8.637-3.409-8.637-8.085zm8.593 3.409c1.948 0 3.322-1.399 3.322-3.41 0-2.01-1.374-3.408-3.322-3.408-1.949 0-3.322 1.399-3.322 3.409s1.417 3.409 3.322 3.409z" fill="#5C02FF"/></svg>