<svg width="148" height="48" fill="none" xmlns="http://www.w3.org/2000/svg"><path d="M37.989 21.315a17.896 17.896 0 003.186-10.174c0-3.665-1.097-7.193-3.186-10.207a2.159 2.159 0 00-1.987-.925c-1.062.068-2.158.274-3.186.548-3.7.959-7.056 3.151-9.454 6.166a17.636 17.636 0 00-1.713 2.569 15.683 15.683 0 00-1.713-2.535c-2.397-2.98-5.72-5.173-9.42-6.166A19.338 19.338 0 007.331.043a2.234 2.234 0 00-1.987.925 17.827 17.827 0 00-3.186 10.208c0 3.7 1.13 7.228 3.186 10.208A11.784 11.784 0 000 31.284c0 6.577 5.344 11.92 11.92 11.92 1.645 0 3.22-.342 4.66-.959.034.103.068.24.102.343.446 1.301.96 2.398 1.473 3.185C18.806 46.801 19.971 48 21.65 48s2.81-1.199 3.46-2.192c.514-.788.993-1.85 1.439-3.152.068-.171.103-.342.171-.48 1.439.617 3.014.96 4.659.96 6.577 0 11.92-5.344 11.92-11.921 0-4.11-2.123-7.742-5.31-9.9zM26.788 9.43c1.815-2.261 4.35-3.94 7.125-4.659.376-.103.719-.171 1.096-.24a13.49 13.49 0 011.712 6.612c0 3.083-1.027 6.028-2.945 8.426-.788-.171-1.61-.24-2.433-.24-2.843 0-5.446.994-7.502 2.672V17.48a13.271 13.271 0 012.947-8.05zM6.577 11.142c0-2.33.582-4.59 1.713-6.612.377.069.753.137 1.096.24 2.775.754 5.31 2.398 7.09 4.659a13.465 13.465 0 012.947 8.118v4.522a11.92 11.92 0 00-7.536-2.706c-.823 0-1.61.068-2.364.24-1.884-2.398-2.946-5.344-2.946-8.462zM4.385 31.284c0-4.145 3.39-7.537 7.536-7.537 4.042 0 7.365 3.22 7.502 7.228v.548c-.137 4.042-3.46 7.262-7.502 7.262-4.145.035-7.536-3.322-7.536-7.501zm17.264 11.783c-.274-.48-.616-1.267-.993-2.5a8.585 8.585 0 01-.24-.891c.48-.48.89-.96 1.267-1.507.377.514.788.993 1.2 1.439-.103.342-.172.685-.309 1.061a14.07 14.07 0 01-.925 2.398zm9.694-4.316c-3.939 0-7.193-3.049-7.502-6.92v-1.233c.309-3.87 3.563-6.885 7.502-6.885 4.145 0 7.537 3.391 7.537 7.536s-3.358 7.502-7.537 7.502z" fill="#fff"/><path d="M31.31 26.385a4.86 4.86 0 00-4.865 4.864 4.86 4.86 0 004.864 4.864 4.84 4.84 0 004.864-4.864 4.86 4.86 0 00-4.864-4.864zm-19.39 0a4.86 4.86 0 00-4.863 4.864 4.86 4.86 0 004.864 4.864 4.86 4.86 0 004.864-4.864 4.84 4.84 0 00-4.864-4.864zm48.095 6.063c-4.693 0-8.084-3.288-8.084-7.81s3.357-7.742 8.084-7.742c3.837 0 6.782 2.261 7.605 5.755.102.377-.206.754-.583.754h-2.432c-.89 0-1.747-.343-2.33-.993a3.025 3.025 0 00-2.26-.994c-1.781 0-3.014 1.336-3.014 3.254 0 1.919 1.267 3.289 3.014 3.289.925 0 1.747-.377 2.295-1.062.582-.72 1.473-1.062 2.398-1.062h2.398c.377 0 .685.377.582.754-.822 3.494-3.836 5.857-7.673 5.857zm25.623-14.524v13.462a.6.6 0 01-.583.583h-2.911a.61.61 0 01-.548-.343c-.137-.343-.548-.445-.857-.24-1.096.72-2.398 1.097-3.836 1.097-4.453 0-7.673-3.255-7.673-7.81 0-4.522 3.185-7.742 7.673-7.742 1.473 0 2.809.41 3.94 1.164.307.206.684.069.855-.24l.069-.137a.6.6 0 01.514-.342h2.809c.274-.034.548.205.548.548zm-4.796 6.714c0-1.884-1.37-3.323-3.288-3.323-1.885 0-3.289 1.439-3.289 3.323 0 1.918 1.37 3.323 3.289 3.323 1.884.034 3.288-1.405 3.288-3.323zm6.919-12.572h3.803c.342 0 .616.274.616.617v18.669a.614.614 0 01-.616.617h-3.802a.614.614 0 01-.617-.617V12.683c0-.343.274-.617.617-.617zm6.578 0h3.802c.343 0 .616.274.616.617v18.669a.614.614 0 01-.616.617h-3.802a.614.614 0 01-.617-.617V12.683c0-.343.274-.617.617-.617zm6.576 6.817h3.803c.342 0 .616.274.616.617v11.886a.614.614 0 01-.616.617h-3.803a.614.614 0 01-.616-.617v-11.92c0-.309.274-.583.616-.583zm.034-6.817h3.734c.343 0 .617.274.617.617v3.768a.614.614 0 01-.617.617h-3.734a.614.614 0 01-.616-.617v-3.768c0-.343.274-.617.616-.617zm21.273 5.276c.343 0 .617.274.617.616v12.4c0 4.59-3.015 7.434-7.845 7.434-3.802 0-6.577-1.781-7.536-4.761-.137-.411.171-.788.582-.788h3.7c.206 0 .411.137.514.308.479.788 1.576 1.199 2.672 1.199 1.678 0 3.048-1.062 3.048-2.809v-.445a7.152 7.152 0 01-3.802 1.096c-4.179 0-7.296-3.117-7.296-7.33 0-4.18 3.117-7.366 7.296-7.366 1.507 0 2.912.48 4.042 1.268.309.205.72.103.891-.206l.137-.274a.61.61 0 01.548-.342h2.432zm-7.228 10.105c1.816 0 3.117-1.336 3.117-3.186 0-1.85-1.301-3.185-3.117-3.185-1.815 0-3.117 1.336-3.117 3.185 0 1.85 1.302 3.186 3.117 3.186zm9.352-2.775c0-4.521 3.426-7.776 8.187-7.776 4.761 0 8.187 3.255 8.187 7.776 0 4.522-3.46 7.776-8.187 7.776-4.761 0-8.187-3.288-8.187-7.776zm8.187 3.255c1.85 0 3.151-1.336 3.151-3.255 0-1.918-1.301-3.254-3.151-3.254-1.85 0-3.151 1.336-3.151 3.254 0 1.919 1.336 3.255 3.151 3.255zm12.092-.651h.206a2.332 2.332 0 012.329 2.33 2.332 2.332 0 01-2.329 2.329h-.206a2.331 2.331 0 01-2.329-2.33c-.035-1.267 1.027-2.33 2.329-2.33z" fill="#fff"/></svg>