<svg width="31" height="30" fill="none" xmlns="http://www.w3.org/2000/svg"><g clip-path="url(#clip0)"><path d="M4.25 30H15.5V19.687h-3.75V15h3.75v-3.75a5.624 5.624 0 015.625-5.625h3.75v4.688H23c-1.035 0-1.875-.098-1.875.937V15h4.688l-1.875 4.688h-2.813V30h5.625a3.755 3.755 0 003.75-3.75V3.75A3.754 3.754 0 0026.75 0H4.25A3.753 3.753 0 00.5 3.75v22.5A3.754 3.754 0 004.25 30z" fill="#4C4D5D"/></g><defs><clipPath id="clip0"><path fill="#fff" transform="translate(.5)" d="M0 0h30v30H0z"/></clipPath></defs></svg>