<svg width="30" height="30" fill="none" xmlns="http://www.w3.org/2000/svg"><g clip-path="url(#clip0)" fill="#4C4D5D"><path d="M15.005 7.297a7.697 7.697 0 00-7.698 7.698 7.697 7.697 0 007.698 7.697 7.697 7.697 0 007.697-7.697 7.697 7.697 0 00-7.697-7.698zm0 12.694a4.995 4.995 0 01-4.996-4.996 4.995 4.995 0 014.996-4.996 4.995 4.995 0 014.996 4.996 4.994 4.994 0 01-4.996 4.996z"/><path d="M21.184.097c-2.76-.129-9.596-.123-12.358 0-2.428.114-4.57.7-6.295 2.426C-.354 5.408.014 9.296.014 14.997c0 5.835-.325 9.632 2.517 12.474 2.896 2.895 6.84 2.516 12.473 2.516 5.78 0 7.775.004 9.82-.788 2.778-1.078 4.875-3.562 5.08-8.023.13-2.762.123-9.597 0-12.36-.247-5.265-3.073-8.46-8.72-8.72zm4.37 25.465c-1.892 1.891-4.516 1.722-10.586 1.722-6.25 0-8.756.093-10.585-1.74-2.106-2.097-1.725-5.463-1.725-10.567 0-6.906-.709-11.88 6.223-12.235 1.592-.056 2.06-.075 6.07-.075l.056.037c6.661 0 11.887-.697 12.201 6.233.071 1.581.088 2.056.088 6.059-.002 6.177.116 8.698-1.743 10.566z"/><path d="M23.008 8.793a1.799 1.799 0 100-3.598 1.799 1.799 0 000 3.598z"/></g><defs><clipPath id="clip0"><path fill="#fff" d="M0 0h30v30H0z"/></clipPath></defs></svg>