<svg width="30" height="30" fill="none" xmlns="http://www.w3.org/2000/svg"><g clip-path="url(#clip0)"><path d="M26.918 8.891A12.278 12.278 0 0030 5.7v-.002a12.845 12.845 0 01-3.544.972 6.118 6.118 0 002.707-3.399 12.307 12.307 0 01-3.9 1.489 6.148 6.148 0 00-10.639 4.205c0 .487.041.956.142 1.402-5.112-.25-9.637-2.7-12.677-6.433a6.202 6.202 0 00-.843 3.108 6.157 6.157 0 002.733 5.111 6.08 6.08 0 01-2.779-.757v.068c0 2.988 2.131 5.47 4.928 6.043a6.116 6.116 0 01-1.613.203c-.394 0-.791-.023-1.164-.105.796 2.435 3.059 4.226 5.746 4.285a12.363 12.363 0 01-7.626 2.622c-.504 0-.987-.022-1.471-.084a17.32 17.32 0 009.435 2.76c10.854 0 17.928-9.055 17.483-18.296z" fill="#4C4D5D"/></g><defs><clipPath id="clip0"><path fill="#fff" d="M0 0h30v30H0z"/></clipPath></defs></svg>